<svg width="10" height="10" viewBox="0 0 10 10" fill="none" xmlns="http://www.w3.org/2000/svg">
<path d="M4.72037 9.28115L4.64775 9.19703C4.4299 8.90342 4.45411 8.48676 4.72037 8.22049L7.4397 5.50112L0.749999 5.50082L0.648229 5.49398C0.282153 5.44431 -9.70271e-07 5.13052 -9.53674e-07 4.75082L0.00684547 4.64905C0.0565081 4.28298 0.370303 4.00082 0.749999 4.00082L7.4417 4.00112L4.71977 1.28043L4.64714 1.19633C4.42923 0.902757 4.45335 0.486088 4.71957 0.219771C5.01241 -0.0731779 5.48728 -0.0732685 5.78023 0.219569L9.78175 4.21957L9.8544 4.30368C10.0723 4.5973 10.0482 5.01403 9.78186 5.28033L5.78103 9.28115L5.69691 9.35377C5.4033 9.57162 4.98664 9.54742 4.72037 9.28115Z" />
</svg>
